<?xml version="1.0" ?>
<svg data-name="Design Convert" id="Design_Convert" viewBox="0 0 64 64" xmlns="http://www.w3.org/2000/svg"><defs><style>.cls-1{fill:#111111;}</style></defs><title/><path class="cls-1" d="M30,52a1,1,0,0,1-.64-.23L17.64,42H10a3,3,0,0,1-3-3V25a3,3,0,0,1,3-3h7.64l11.72-9.77A1,1,0,0,1,31,13V51a1,1,0,0,1-.58.91A1,1,0,0,1,30,52ZM10,24a1,1,0,0,0-1,1V39a1,1,0,0,0,1,1h8a1,1,0,0,1,.64.23L29,48.86V15.14L18.64,23.77A1,1,0,0,1,18,24Z"/><path class="cls-1" d="M37,42a1,1,0,0,1-.6-.2,1,1,0,0,1-.2-1.4,14,14,0,0,0,0-16.8,1,1,0,0,1,1.6-1.2,16,16,0,0,1,0,19.2A1,1,0,0,1,37,42Z"/><path class="cls-1" d="M44,46a1,1,0,0,1-.82-1.57,22.13,22.13,0,0,0,0-24.86,1,1,0,1,1,1.64-1.14,24.12,24.12,0,0,1,0,27.14A1,1,0,0,1,44,46Z"/><path class="cls-1" d="M50,51a1,1,0,0,1-.6-.2,1,1,0,0,1-.2-1.4,29,29,0,0,0,0-34.8,1,1,0,0,1,1.6-1.2,31,31,0,0,1,0,37.2A1,1,0,0,1,50,51Z"/></svg>